<svg xmlns="http://www.w3.org/2000/svg" width="95.665" height="105.455" viewBox="0 0 95.665 105.455">
  <g id="Group_1266" data-name="Group 1266" transform="translate(-0.044 0.003)">
    <circle id="Ellipse_4" data-name="Ellipse 4" cx="33" cy="33" r="33" transform="translate(0.044 -0.003)" fill="#fad390" opacity="0.2"/>
    <rect id="Rectangle_674" data-name="Rectangle 674" width="35" height="5" transform="translate(43.044 26.997)" fill="#fad390"/>
    <rect id="Rectangle_675" data-name="Rectangle 675" width="11" height="4" transform="translate(55.044 55.997)" fill="#fad390"/>
    <g id="Group_4205" data-name="Group 4205" transform="translate(25.582 10.833)">
      <g id="quality">
        <path id="Path_17" data-name="Path 17" d="M29.8,24.852H26.738a1.386,1.386,0,1,0,0,2.772H29.8a1.386,1.386,0,1,0,0-2.772Zm0,0" transform="translate(-20.759 -20.259)"/>
        <path id="Path_18" data-name="Path 18" d="M71.214,24.852H68.152a1.386,1.386,0,1,0,0,2.772h3.062a1.386,1.386,0,1,0,0-2.772Zm0,0" transform="translate(-54.52 -20.259)"/>
        <path id="Path_19" data-name="Path 19" d="M112.631,24.852H109.57a1.386,1.386,0,1,0,0,2.772h3.062a1.386,1.386,0,1,0,0-2.772Zm0,0" transform="translate(-88.283 -20.259)"/>
        <path id="Path_20" data-name="Path 20" d="M121.457,82.832H84.718a1.386,1.386,0,0,0-1.386,1.386v6.124a1.386,1.386,0,0,0,1.386,1.386h36.739a1.386,1.386,0,0,0,1.386-1.386V84.218A1.386,1.386,0,0,0,121.457,82.832Zm-1.386,6.124H86.1V85.6h33.967Zm0,0" transform="translate(-68.025 -67.524)"/>
        <path id="Path_21" data-name="Path 21" d="M206.81,149.1h-6.123a1.386,1.386,0,1,0,0,2.772h6.123a1.386,1.386,0,1,0,0-2.772Zm0,0" transform="translate(-162.562 -121.548)"/>
        <path id="Path_22" data-name="Path 22" d="M130.1,331.336a13.632,13.632,0,1,0,13.632,13.632A13.648,13.648,0,0,0,130.1,331.336Zm0,24.492a10.86,10.86,0,1,1,10.86-10.86A10.873,10.873,0,0,1,130.1,355.828Zm0,0" transform="translate(-95.034 -270.104)"/>
        <path id="Path_23" data-name="Path 23" d="M162.356,369.16l-3.728-.541-1.668-3.378a1.386,1.386,0,0,0-2.485,0l-1.668,3.378-3.727.541a1.386,1.386,0,0,0-.768,2.364l2.7,2.63-.637,3.712a1.386,1.386,0,0,0,2.011,1.461l3.334-1.753,3.334,1.753a1.386,1.386,0,0,0,2.011-1.461l-.637-3.712,2.7-2.63a1.386,1.386,0,0,0-.767-2.364Zm-4.386,3.517a1.386,1.386,0,0,0-.4,1.227l.285,1.662-1.493-.785a1.384,1.384,0,0,0-1.29,0l-1.494.785.285-1.662a1.385,1.385,0,0,0-.4-1.227l-1.208-1.177,1.67-.243a1.386,1.386,0,0,0,1.044-.759l.746-1.513.747,1.513a1.386,1.386,0,0,0,1.043.759l1.67.243Zm0,0" transform="translate(-120.655 -297.114)" fill="#fad390"/>
        <path id="Path_24" data-name="Path 24" d="M70.626,25.572V4.447A4.453,4.453,0,0,0,66.179,0H4.949A4.453,4.453,0,0,0,.5,4.447V65.678a4.452,4.452,0,0,0,4.448,4.448H16.384a19.755,19.755,0,1,0,38.359,0H66.179a4.452,4.452,0,0,0,4.448-4.448V25.572ZM3.272,25.137l9.32,5.019.009.005L31.839,40.52l0,0,4.345,2.34H29.783L24.3,39.969l-.008,0-12.562-6.63,0,0L3.272,28.869Zm15.482,5.188H31.116v6.656ZM32.5,48.985H30.826V45.634H40.3v3.351H32.5Zm4.737,2.772V55.18c-.552-.046-1.111-.071-1.675-.071s-1.123.025-1.675.071V51.757ZM18.043,39.8H12.457V36.851ZM4.948,67.354a1.678,1.678,0,0,1-1.676-1.676V32l6.412,3.384v5.8a1.386,1.386,0,0,0,1.386,1.386H23.3l4.759,2.511v5.287a1.386,1.386,0,0,0,1.386,1.386h1.675v3.856A19.653,19.653,0,0,0,24.7,58.369v-8a1.386,1.386,0,0,0-1.386-1.386H11.071a1.385,1.385,0,0,0-1.386,1.386V62.617A1.385,1.385,0,0,0,11.071,64h8a19.746,19.746,0,0,0-1.778,3.351H4.948Zm16.983-15.6v8.821q-.335.318-.653.653H12.457V51.757Zm13.631,40.09A16.983,16.983,0,1,1,52.546,74.863,17,17,0,0,1,35.563,91.846ZM49.195,60.578V51.757H58.67v9.474H49.848q-.319-.334-.653-.653Zm18.659,5.1a1.677,1.677,0,0,1-1.675,1.675H53.834A19.74,19.74,0,0,0,52.057,64h8a1.385,1.385,0,0,0,1.386-1.386V50.371a1.385,1.385,0,0,0-1.386-1.386H47.809a1.386,1.386,0,0,0-1.386,1.386v8a19.65,19.65,0,0,0-6.412-2.756V51.757h1.676a1.386,1.386,0,0,0,1.386-1.386V45.084L67.854,32Zm0-36.809L41.693,42.677l-3.207-1.726,8.665-4.666.012-.006L67.854,25.137Zm0-19.684H62.931a1.386,1.386,0,1,0,0,2.772h4.923V21.989L46.148,33.677H38.625a1.386,1.386,0,1,0,0,2.772H41l-5.437,2.927-1.675-.9V28.939A1.386,1.386,0,0,0,32.5,27.553h-18.9L3.272,21.988V11.957H57.18a1.386,1.386,0,1,0,0-2.772H3.272V4.447A1.678,1.678,0,0,1,4.949,2.772h61.23a1.677,1.677,0,0,1,1.675,1.675Zm0,0" transform="translate(-0.5 0)"/>
      </g>
      <path id="Path_1717" data-name="Path 1717" d="M.134.214A6.357,6.357,0,0,1,3.539-1,9.156,9.156,0,0,1,7.412.214V7.492H.134L-.629,1.6Z" transform="translate(31.615 72.57)" fill="#fad390"/>
    </g>
  </g>
</svg>
