<svg id="Group_1266" data-name="Group 1266" xmlns="http://www.w3.org/2000/svg" width="90.084" height="90.197" viewBox="0 0 90.084 90.197">
  <ellipse id="Ellipse_4" data-name="Ellipse 4" cx="32.5" cy="32" rx="32.5" ry="32" transform="translate(18.221 26.197)" fill="#079992" opacity="0.1"/>
  <g id="Page-1" transform="translate(0 0)">
    <g id="_086---Edit-File" data-name="086---Edit-File">
      <path id="Shape" d="M7.507,90.084H61.558a7.516,7.516,0,0,0,7.507-7.507V61.557a1.5,1.5,0,0,0-3,0v21.02a4.5,4.5,0,0,1-4.5,4.5H7.507a4.5,4.5,0,0,1-4.5-4.5V36.715l18.167-15.9a7.507,7.507,0,0,0-.189-11.46L13.212,3H61.558a4.5,4.5,0,0,1,4.5,4.5V22.521a1.5,1.5,0,0,0,3,0V7.507A7.516,7.516,0,0,0,61.558,0H9.008A1.5,1.5,0,0,0,7.54,1.182L.033,35.714a1.639,1.639,0,0,0-.033.32V82.577A7.516,7.516,0,0,0,7.507,90.084ZM9.954,4.216l9.126,7.465a4.5,4.5,0,0,1,.114,6.875L3.934,31.909Z" transform="translate(0 0)"/>
      <path id="Shape-2" data-name="Shape" d="M7,26.5a1.5,1.5,0,0,0-3,0v3a1.5,1.5,0,0,0,3,0Z" transform="translate(2.006 12.535)"/>
      <path id="Shape-3" data-name="Shape" d="M5.5,31A1.5,1.5,0,0,0,4,32.5V59.527a1.5,1.5,0,0,0,3,0V32.5A1.5,1.5,0,0,0,5.5,31Z" transform="translate(2.006 15.543)"/>
      <path id="Shape-4" data-name="Shape" d="M24.006,11.5A1.5,1.5,0,0,0,22.5,10h-3a1.5,1.5,0,1,0,0,3h3A1.5,1.5,0,0,0,24.006,11.5Z" transform="translate(9.025 5.014)"/>
      <path id="Shape-5" data-name="Shape" d="M46.521,10H25.5a1.5,1.5,0,0,0,0,3h21.02a1.5,1.5,0,1,0,0-3Z" transform="translate(12.034 5.014)"/>
      <path id="Shape-6" data-name="Shape" d="M15.5,16a1.5,1.5,0,1,0,0,3h6.006a1.5,1.5,0,1,0,0-3Z" transform="translate(7.02 8.022)"/>
      <path id="Shape-7" data-name="Shape" d="M23.5,19H47.524a1.5,1.5,0,0,0,0-3H23.5a1.5,1.5,0,1,0,0,3Z" transform="translate(11.031 8.022)"/>
      <path id="Shape-8" data-name="Shape" d="M9.5,50a1.5,1.5,0,1,0,0,3h3a1.5,1.5,0,1,0,0-3Z" transform="translate(4.011 25.07)"/>
      <path id="Shape-9" data-name="Shape" d="M77.059,14.759a6.006,6.006,0,0,0-8.493,0l-3.184,3.184C63.827,19.5,31.149,52.176,30.338,52.993a2.76,2.76,0,0,0-.467.868L24.791,67.406a2.994,2.994,0,0,0-.165,1.146H15.5a1.5,1.5,0,0,0,0,3H27.513a7.292,7.292,0,0,0,1.821-.535l12.694-4.761a3.062,3.062,0,0,0,1.051-.542l30.8-30.788,4.246-4.246L81.3,27.5a6.006,6.006,0,0,0,0-8.493ZM32,56.751l7.318,7.318L27.6,68.46Zm10.028,5.782-3.184-3.184L51.579,46.609a1.5,1.5,0,0,0-2.123-2.123L36.716,57.225l-3.184-3.184L62.2,25.374,65.38,28.56,54.763,39.178A1.5,1.5,0,1,0,56.886,41.3L67.5,30.683l3.186,3.186ZM72.813,31.745,64.32,23.251l2.123-2.123,8.493,8.493Zm6.369-6.369L77.059,27.5l-8.493-8.493,2.123-2.123a3,3,0,0,1,4.247,0l4.246,4.246a3,3,0,0,1,0,4.247Z" transform="translate(7.02 6.518)"/>
    </g>
  </g>
</svg>
