<svg xmlns="http://www.w3.org/2000/svg" width="89.319" height="94.275" viewBox="0 0 89.319 94.275">
  <ellipse id="Ellipse_4" data-name="Ellipse 4" cx="30" cy="30.5" rx="30" ry="30.5" transform="translate(29.319)" fill="#6a89cc" opacity="0.1"/>
  <g id="teaching" transform="translate(0 8.415)">
    <path id="Path_1718" data-name="Path 1718" d="M86.43,2H43.5a1.431,1.431,0,0,0-1.431,1.431V26.752l-4.355-5.082a7.151,7.151,0,0,0-5.434-2.5H26.964a8.6,8.6,0,0,0,2.105-4.293H30.62A1.432,1.432,0,0,0,31.9,12.807L29.189,7.386V6.293A4.3,4.3,0,0,0,24.9,2H16.31a4.3,4.3,0,0,0-4.293,4.293V13.14a9.084,9.084,0,0,0,2.3,6.032h-2.3a7.163,7.163,0,0,0-7.155,7.155V39.206A7.081,7.081,0,0,0,6.33,43.5h-2.9A1.431,1.431,0,0,0,2,44.93v5.724a1.431,1.431,0,0,0,1.431,1.431H4.862v5.724H7.724V52.085h42.93v2.862h2.862V52.085H86.43a1.431,1.431,0,0,0,1.431-1.431V3.431A1.431,1.431,0,0,0,86.43,2ZM14.879,6.293A1.432,1.432,0,0,1,16.31,4.862H24.9a1.432,1.432,0,0,1,1.431,1.431V7.724a1.434,1.434,0,0,0,.15.64L28.3,12.017h-.547a1.431,1.431,0,0,0-1.431,1.431,5.726,5.726,0,0,1-6.291,5.7,5.94,5.94,0,0,1-5.157-6.006Zm7.7,15.741L20.6,25.989l-1.978-3.955ZM7.724,39.206V26.327a4.3,4.3,0,0,1,4.293-4.293h3.409l3.9,7.795a1.431,1.431,0,0,0,2.56,0l3.9-7.795h6.5a4.29,4.29,0,0,1,3.26,1.5l6.873,8.019a1.429,1.429,0,0,0,1.032.5,1.392,1.392,0,0,0,1.068-.418l7.573-7.576,3.7,3.7-9.25,9.251a4.3,4.3,0,0,1-6.072,0l-4.538-4.539a1.432,1.432,0,0,0-2.444,1.012V43.5H26.327V39.206a4.3,4.3,0,0,0-4.293-4.293H16.31V32.051H13.448v4.293a1.431,1.431,0,0,0,1.431,1.431h7.155a1.432,1.432,0,0,1,1.431,1.431V43.5H12.017a4.3,4.3,0,0,1-4.293-4.293ZM36.344,43.5V36.937l2.1,2.1a7.107,7.107,0,0,0,3.629,1.942V43.5Zm17.172,5.724H4.862V46.361H53.516Zm31.482,0H56.379V44.93A1.431,1.431,0,0,0,54.947,43.5H44.93V40.975a7.107,7.107,0,0,0,3.629-1.942L58.821,28.77a1.429,1.429,0,0,0,0-2.023L55.54,23.465l7.574-7.574-2.023-2.023-7.574,7.574-.419-.419a1.429,1.429,0,0,0-2.023,0L44.93,27.166V4.862H85Z" transform="translate(-2 -2)"/>
    <path id="Path_1719" data-name="Path 1719" d="M46.779,9.031,54.726,13a1.416,1.416,0,0,0,.64.152A1.433,1.433,0,0,0,56,13l8.586-4.293L63.31,6.152l-7.945,3.972L47.419,6.152a1.431,1.431,0,0,0-1.281,0l-8.586,4.293L38.833,13Z" transform="translate(13.323 -0.276)"/>
    <path id="Path_1720" data-name="Path 1720" d="M45,17H62.172v2.862H45Z" transform="translate(16.534 4.465)"/>
    <path id="Path_1721" data-name="Path 1721" d="M45,21H62.172v2.862H45Z" transform="translate(16.534 6.189)"/>
    <path id="Path_1722" data-name="Path 1722" d="M45,25H62.172v2.862H45Z" transform="translate(16.534 7.913)"/>
    <path id="Path_1723" data-name="Path 1723" d="M45,29H62.172v2.862H45Z" transform="translate(16.534 9.637)"/>
    <path id="Path_1724" data-name="Path 1724" d="M5,61.034V69.62a1.431,1.431,0,0,0,1.431,1.431h14.31a1.431,1.431,0,0,0,1.431-1.431V61.034a8.576,8.576,0,0,0-4.131-7.325,7.155,7.155,0,1,0-8.909,0A8.576,8.576,0,0,0,5,61.034ZM9.293,48.155a4.293,4.293,0,1,1,4.293,4.293A4.3,4.3,0,0,1,9.293,48.155ZM7.862,61.034a5.724,5.724,0,0,1,11.448,0v7.155H7.862Z" transform="translate(-0.707 14.809)"/>
    <path id="Path_1725" data-name="Path 1725" d="M19,61.034V69.62a1.431,1.431,0,0,0,1.431,1.431h14.31a1.431,1.431,0,0,0,1.431-1.431V61.034a8.576,8.576,0,0,0-4.131-7.325,7.155,7.155,0,1,0-8.909,0A8.576,8.576,0,0,0,19,61.034Zm4.293-12.879a4.293,4.293,0,1,1,4.293,4.293A4.3,4.3,0,0,1,23.293,48.155ZM21.862,61.034a5.724,5.724,0,1,1,11.448,0v7.155H21.862Z" transform="translate(5.327 14.809)"/>
    <path id="Path_1726" data-name="Path 1726" d="M33,61.034V69.62a1.431,1.431,0,0,0,1.431,1.431h14.31a1.431,1.431,0,0,0,1.431-1.431V61.034a8.576,8.576,0,0,0-4.131-7.325,7.155,7.155,0,1,0-8.909,0A8.576,8.576,0,0,0,33,61.034Zm4.293-12.879a4.293,4.293,0,1,1,4.293,4.293A4.3,4.3,0,0,1,37.293,48.155ZM35.862,61.034a5.724,5.724,0,0,1,11.448,0v7.155H35.862Z" transform="translate(11.361 14.809)"/>
    <path id="Path_1727" data-name="Path 1727" d="M47,61.034V69.62a1.431,1.431,0,0,0,1.431,1.431h14.31a1.431,1.431,0,0,0,1.431-1.431V61.034a8.576,8.576,0,0,0-4.131-7.325,7.155,7.155,0,1,0-8.909,0A8.576,8.576,0,0,0,47,61.034Zm4.293-12.879a4.293,4.293,0,1,1,4.293,4.293A4.3,4.3,0,0,1,51.293,48.155ZM49.862,61.034a5.724,5.724,0,0,1,11.448,0v7.155H49.862Z" transform="translate(17.396 14.809)"/>
  </g>
</svg>
