<svg xmlns="http://www.w3.org/2000/svg" width="83.198" height="102.266" viewBox="0 0 83.198 102.266">
  <ellipse id="Ellipse_4" data-name="Ellipse 4" cx="30" cy="30.5" rx="30" ry="30.5" fill="#880e4f" opacity="0.1"/>
  <g id="conference" transform="translate(-18.583 14.266)">
    <path id="Path_1913" data-name="Path 1913" d="M100.063,59.3H95.25v-8.77a6.7,6.7,0,0,0-.172-13.4H79.372l.7-4.984h2.8a1.719,1.719,0,0,0,1.719-1.719V18.906a1.719,1.719,0,0,0-1.719-1.719H80.922L82.367,12.6l1.785,1.2a1.719,1.719,0,1,0,1.916-2.854L80,6.877a5.162,5.162,0,1,0-2.175,2.68l1.566,1.051-2.074,6.58H69.125a1.719,1.719,0,1,0,0,3.438H81.156V28.7H41.625V20.625H53.656a1.719,1.719,0,1,0,0-3.437H45.463l-2.074-6.58,1.566-1.051a5.157,5.157,0,1,0-2.175-2.68l-6.066,4.071A1.719,1.719,0,1,0,38.63,13.8l1.785-1.2,1.445,4.583H39.906a1.719,1.719,0,0,0-1.719,1.719V30.422a1.719,1.719,0,0,0,1.719,1.719h2.8l.7,4.984H27.7a6.7,6.7,0,0,0-.172,13.4V59.3H22.719A1.719,1.719,0,0,0,21,61.016v9.969A1.719,1.719,0,0,0,22.719,72.7h1.719V86.281a1.719,1.719,0,0,0,3.438,0V72.7H43.344V86.281a1.719,1.719,0,0,0,3.438,0V72.7h3.438V86.281a1.719,1.719,0,1,0,3.437,0V72.7H69.125V86.281a1.719,1.719,0,0,0,3.438,0V72.7H76V86.281a1.719,1.719,0,0,0,3.438,0V72.7H94.906V86.281a1.719,1.719,0,0,0,3.438,0V72.7h1.719a1.719,1.719,0,0,0,1.719-1.719V61.016A1.719,1.719,0,0,0,100.063,59.3ZM75.141,6.875a1.719,1.719,0,1,1,1.719-1.719A1.721,1.721,0,0,1,75.141,6.875Zm-27.5-3.437a1.719,1.719,0,1,1-1.719,1.719A1.721,1.721,0,0,1,47.641,3.437ZM79.266,40.562H95.078a3.266,3.266,0,0,1,0,6.531H79.266a3.266,3.266,0,0,1,0-6.531Zm12.547,9.969V59.3H82.531V50.531Zm-12.719,0V59.3H76.258l1.264-9A6.683,6.683,0,0,0,79.094,50.527ZM46.781,69.266H24.438V62.734H46.781ZM30.969,59.3V50.531H40.25V59.3Zm12.719,0v-8.77a6.68,6.68,0,0,0,1.571-.227l1.264,9Zm-.172-12.2H27.7a3.266,3.266,0,0,1,0-6.531H43.516a3.266,3.266,0,1,1,0,6.531Zm6.478,12.2L48.457,48.353,48.5,48.3a6.687,6.687,0,0,0,4.812,2.223V59.3Zm3.49-12.2a3.266,3.266,0,0,1,0-6.531H69.3a3.266,3.266,0,0,1,0,6.531Zm12.547,3.438V59.3H56.75V50.531Zm6.531,18.734H50.219V62.734H72.563Zm.225-9.969H69.469v-8.77A6.687,6.687,0,0,0,74.281,48.3l.043.048Zm2.974-21.18a6.753,6.753,0,0,0-1.48,1.235A6.687,6.687,0,0,0,69.3,37.125H53.484A6.688,6.688,0,0,0,48.5,39.352a6.753,6.753,0,0,0-1.48-1.235l-.84-5.976H76.6ZM98.344,69.266H76V62.734H98.344Z"/>
    <ellipse id="Ellipse_126" data-name="Ellipse 126" cx="2" cy="1.5" rx="2" ry="1.5" transform="translate(59.391 17)"/>
  </g>
</svg>
